<?xml version="1.0" encoding="utf-8"?>
<!-- Generator: Adobe Illustrator 17.0.0, SVG Export Plug-In . SVG Version: 6.00 Build 0)  -->
<!DOCTYPE svg PUBLIC "-//W3C//DTD SVG 1.1//EN" "http://www.w3.org/Graphics/SVG/1.1/DTD/svg11.dtd">
<svg version="1.1" id="Layer_1" xmlns="http://www.w3.org/2000/svg" xmlns:xlink="http://www.w3.org/1999/xlink" x="0px" y="0px"
	 width="79.371px" height="55.145px" viewBox="0 0 79.371 55.145" enable-background="new 0 0 79.371 55.145" xml:space="preserve">
<g>
	<path fill="#402B14" d="M65.028,36.158c0.553,0.371,1.192,0.545,1.931,0.545c0.307,0,0.645-0.023,0.992-0.092
		c0.324-0.062,0.644-0.082,0.92-0.082c0.695,0,1.24,0.193,1.646,0.559c0.534,0.566,0.807,1.226,0.807,1.994
		c0,0.797-0.294,1.514-0.86,2.152c-0.574,0.648-1.519,0.992-2.826,1.051c-0.105,0.027-0.189,0.027-0.279,0.027
		c-1.248,0-2.529-0.43-3.863-1.293c-1.435-0.908-2.432-3.031-2.986-6.357c-0.27-1.59-0.418-3.397-0.418-5.445
		c0-2.23,0.168-4.748,0.496-7.533c0.31-2.627,0.457-4.828,0.457-6.586c0-1.766-0.159-3.07-0.473-3.926
		c-0.457-1.195-0.814-2.125-1.068-2.795c-0.257-0.674-0.388-1.34-0.388-1.996c0-0.771,0.279-1.42,0.831-1.978
		c0.551-0.553,1.207-0.832,1.99-0.832c0.768,0,1.432,0.279,1.975,0.832c0.559,0.559,0.981,1.859,1.281,3.943
		c0.083,0.529,0.107,1.176,0.107,1.924c0,2.076-0.303,4.897-0.919,8.481c-0.675,3.904-1.021,7.211-1.021,9.926
		c0,0.773,0.027,1.479,0.086,2.123C63.688,33.844,64.213,35.633,65.028,36.158z"/>
	<path fill="#402B14" d="M78.116,34.478c-0.353-1.281-0.528-3.1-0.528-5.473c0-2.351,0.176-4.685,0.528-6.992
		c0.264-1.764,0.396-3.234,0.396-4.436c0-0.355-0.005-0.691-0.038-1c-0.307-1.766-1.156-2.666-2.508-2.715
		c-0.748,0-1.388,0.285-1.917,0.859c-0.436,0.483-0.663,1.127-0.663,1.916c0,0.639,0.15,1.392,0.441,2.256
		c0.551,1.703,0.826,3.387,0.826,5.059c-0.095,2.42-0.342,4.902-0.705,7.467c-0.378,2.574-0.563,4.668-0.563,6.275
		c-0.016,0.027-0.021,0.045-0.021,0.066c0,1.59,0.393,2.777,1.156,3.58c0.547,0.564,1.221,0.842,1.994,0.842
		c0.777,0,1.432-0.277,1.98-0.842c0.562-0.543,0.838-1.209,0.838-1.984c0-0.641-0.115-1.293-0.354-1.965
		C78.751,36.73,78.453,35.762,78.116,34.478z"/>
	<path fill="#402B14" d="M27.316,34.703c-0.35-1.283-0.527-3.111-0.527-5.486c0-2.348,0.178-4.684,0.527-6.984
		c0.266-1.764,0.41-3.23,0.41-4.424c0-0.367-0.02-0.699-0.052-1.006c-0.316-1.773-1.149-2.674-2.503-2.715
		c-0.744,0-1.386,0.287-1.918,0.848c-0.447,0.496-0.66,1.125-0.66,1.912c0,0.662,0.14,1.406,0.434,2.27
		c0.558,1.693,0.83,3.387,0.83,5.062c-0.102,2.404-0.338,4.898-0.706,7.475c-0.374,2.566-0.558,4.654-0.558,6.25
		c-0.013,0.039-0.018,0.066-0.018,0.066c0,1.598,0.385,2.789,1.156,3.592c0.529,0.557,1.205,0.836,2.002,0.836
		c0.774,0,1.424-0.279,1.969-0.836c0.568-0.543,0.838-1.199,0.838-1.975c0-0.656-0.113-1.305-0.358-1.973
		C27.962,36.945,27.664,35.98,27.316,34.703z"/>
	<path fill="#C38F22" d="M25.556,52.664c0.97,0,1.784-0.342,2.469-1.021c0.687-0.684,1.038-1.516,1.038-2.471
		c0-0.975-0.352-1.797-1.038-2.484c-0.685-0.684-1.499-1.025-2.469-1.025c-0.961,0-1.8,0.342-2.479,1.025
		c-0.68,0.688-1.027,1.51-1.027,2.484c0,0.955,0.348,1.787,1.027,2.471C23.756,52.322,24.595,52.664,25.556,52.664z"/>
	<path fill="#C38F22" d="M75.861,3.6c-0.963,0-1.786,0.336-2.475,1.027c-0.683,0.684-1.027,1.51-1.027,2.475
		c0,0.959,0.345,1.795,1.027,2.484c0.688,0.684,1.512,1.023,2.475,1.023c0.97,0,1.8-0.34,2.479-1.023
		c0.682-0.689,1.031-1.525,1.031-2.484c0-0.965-0.35-1.791-1.031-2.475C77.661,3.935,76.831,3.6,75.861,3.6z"/>
	<path fill="#402B14" d="M33.771,0.607C33.287,0.199,32.818,0,32.327,0c-0.274,0-0.528,0.072-0.815,0.199
		c-0.768,0.346-1.316,1.051-1.641,2.125c-0.326,1.059-0.855,2.062-1.6,2.977c-0.401,0.496-0.82,0.926-1.247,1.316
		c-2.095-3.443-5.589-5.461-10.171-5.625h-0.565c-3.549,0-6.955,1.207-10.185,3.619c-0.248-1.307-0.581-2.17-0.988-2.596
		C4.529,1.434,3.819,1.146,2.98,1.146c-0.816,0-1.518,0.293-2.112,0.881C0.278,2.611,0,3.305,0,4.139
		c0,0.57,0.088,1.207,0.273,1.898c0.185,0.717,0.482,1.773,0.88,3.185c0.235,0.861,0.358,2.209,0.358,4.066
		c0,2.111-0.146,4.881-0.455,8.293c-0.341,3.748-0.508,6.82-0.508,9.217c0,1.496,0.053,2.732,0.19,3.695
		c0.337,2.572,0.826,4.531,1.438,5.861c0.625,1.326,1.418,2.002,2.382,2.002c0.954,0,1.784-0.336,2.466-1.02
		c0.687-0.66,1.02-1.488,1.02-2.461c0-0.973-0.26-1.875-0.816-2.729c-0.527-0.863-1.225-2.894-2.097-6.088
		c-0.406-1.5-0.604-3.221-0.604-5.195c0.824-0.291,1.703-0.459,2.637-0.459h0.147c1.658,0.022,3.819,0.201,6.478,0.541
		c0.948,0.129,1.793,0.184,2.522,0.184c1.282,0,2.2-0.184,2.754-0.566c0.83-0.541,1.232-1.309,1.232-2.273v-0.213
		c-0.055-1.047-0.527-1.746-1.4-2.072c-0.333-0.133-0.68-0.197-1.032-0.197c-0.592,0-1.249,0.18-1.935,0.523
		c-1.09,0.588-2.291,0.94-3.586,1.074c-0.369,0.047-0.817,0.065-1.334,0.065c-1.229,0-2.853-0.127-4.867-0.367
		c-0.491-0.059-0.952-0.1-1.371-0.139c0.131-1.156,0.307-2.383,0.547-3.688c0.56-2.965,0.912-5.455,1.041-7.475
		c0.586-0.869,1.24-1.637,1.999-2.297c2.386-2.084,4.97-3.131,7.772-3.131c0.273,0,0.537,0.012,0.826,0.027
		c2.451,0.166,4.742,1.576,5.957,4.359c0.787,1.768,1.889,2.207,2.851,2.137c1.206-0.098,2.186-0.977,3.254-2.043
		c0.991-0.9,2.07-1.844,3.196-2.834c1.319-1.156,2.175-2.072,2.357-3.037c0.025-0.172,0.031-0.346,0.031-0.522
		C34.605,1.752,34.33,1.139,33.771,0.607z"/>
	<path fill="#402B14" d="M56.896,12.305c-0.504-0.443-1.023-0.66-1.553-0.66c-0.281,0-0.586,0.086-0.877,0.217
		c-0.832,0.379-1.42,1.135-1.787,2.287c-0.33,1.158-0.929,2.236-1.713,3.223c-0.67,0.826-1.361,1.531-2.081,2.113
		c-0.152-0.08-0.311-0.139-0.464-0.203c-0.074-0.035-0.156-0.064-0.238-0.098c-0.207-0.076-0.42-0.158-0.635-0.231
		c-1.241-0.426-2.578-0.643-3.996-0.643c-1.915,0-3.68,0.383-5.289,1.15c-0.604,0.297-2.203,1.381-2.621,1.771
		c-0.276,0.221-0.547,0.459-0.787,0.701c-2.398,2.435-3.602,5.371-3.602,8.814c0,3.418,1.203,6.34,3.602,8.773
		c2.407,2.418,5.301,3.637,8.697,3.637c2.215,0,4.194-0.506,5.986-1.533c3.825,2.119,4.01,6.908,1.213,8.346
		c-2.192,1.119-6.436,0.5-8.939-0.248c-1.816-0.555-3.387-1.605-4.936-1.977c-0.179-0.045-4.591-0.744-4.458,3.855
		c0.03,1.01,0.15,2.217,1.974,2.92c1.63,0.623,5.219,0.305,7.576,0.436c3.199,0.182,3.459,0.188,4.637,0.188
		c2.299,0,4.277-0.557,5.95-1.666c2.202-1.463,3.405-3.678,3.547-6.645v-0.047c0-2.881-1.252-5.322-3.753-7.322
		c2.347-2.43,3.523-5.338,3.523-8.717c0-3.443-1.207-6.379-3.609-8.793c-0.079-0.074-0.133-0.137-0.217-0.203
		c-0.174-0.186-0.364-0.377-0.525-0.498c1.212-1.119,2.438-2.146,3.709-3.105c1.501-1.158,2.34-2.248,2.531-3.285
		c0.025-0.186,0.044-0.373,0.044-0.559C57.806,13.537,57.493,12.863,56.896,12.305z M51.179,30.49c0,0.488-0.03,0.986-0.089,1.506
		c-0.047,0.248-0.094,0.51-0.147,0.771c-0.523,2.355-1.692,4.166-3.505,5.445c-1.27,0.898-2.596,1.346-3.966,1.346
		c-0.358,0-0.721-0.033-1.085-0.094c-0.247-0.053-0.498-0.113-0.749-0.193c-2.03-0.562-3.588-1.877-4.663-3.934
		c-0.649-1.271-1.008-2.621-1.033-4.027v-0.314c0-0.506,0.025-1.008,0.101-1.527c0.038-0.24,0.086-0.516,0.131-0.771
		c0.525-2.354,1.688-4.178,3.481-5.471c1.293-0.875,2.617-1.316,3.965-1.316c0.378,0,0.738,0.029,1.105,0.104
		c0.251,0.039,0.502,0.102,0.753,0.18c2.033,0.562,3.571,1.867,4.636,3.93c0.689,1.291,1.035,2.637,1.065,4.059V30.49z"/>
</g>
</svg>
