<?xml version="1.0" encoding="utf-8"?>
<!-- Generator: Adobe Illustrator 17.0.0, SVG Export Plug-In . SVG Version: 6.00 Build 0)  -->
<!DOCTYPE svg PUBLIC "-//W3C//DTD SVG 1.1//EN" "http://www.w3.org/Graphics/SVG/1.1/DTD/svg11.dtd">
<svg version="1.1" id="Layer_1" xmlns="http://www.w3.org/2000/svg" xmlns:xlink="http://www.w3.org/1999/xlink" x="0px" y="0px"
	 width="590.675px" height="410.382px" viewBox="0 0 590.675 410.382" enable-background="new 0 0 590.675 410.382"
	 xml:space="preserve">
<g>
	<g>
		<path fill="#FFFCF2" d="M483.937,269.087c4.113,2.762,8.874,4.055,14.368,4.055c2.282,0,4.796-0.174,7.383-0.683
			c2.413-0.465,4.79-0.61,6.847-0.61c5.174,0,9.229,1.439,12.246,4.157c3.975,4.215,6.003,9.128,6.003,14.84
			c0,5.931-2.187,11.265-6.402,16.017c-4.274,4.826-11.301,7.384-21.032,7.82c-0.785,0.204-1.41,0.204-2.078,0.204
			c-9.288,0-18.823-3.198-28.751-9.622c-10.676-6.759-18.096-22.559-22.224-47.311c-2.006-11.832-3.111-25.277-3.111-40.524
			c0-16.599,1.25-35.335,3.692-56.062c2.311-19.55,3.401-35.931,3.401-49.013c0-13.14-1.184-22.849-3.517-29.216
			c-3.401-8.895-6.061-15.814-7.951-20.799c-1.911-5.014-2.885-9.971-2.885-14.855c0-5.741,2.079-10.567,6.185-14.724
			c4.099-4.113,8.982-6.192,14.811-6.192c5.712,0,10.655,2.079,14.695,6.192c4.157,4.157,7.297,13.838,9.535,29.347
			c0.618,3.939,0.799,8.75,0.799,14.317c0,15.451-2.253,36.439-6.838,63.111c-5.023,29.056-7.595,53.663-7.595,73.867
			c0,5.756,0.204,11.004,0.64,15.8C473.959,251.863,477.869,265.177,483.937,269.087z"/>
		<path fill="#FFFCF2" d="M581.337,256.587c-2.624-9.535-3.932-23.067-3.932-40.728c0-17.5,1.308-34.869,3.932-52.036
			c1.962-13.125,2.951-24.069,2.951-33.009c0-2.646-0.036-5.145-0.284-7.442c-2.282-13.14-8.605-19.84-18.663-20.204
			c-5.567,0-10.327,2.122-14.266,6.396c-3.242,3.59-4.935,8.387-4.935,14.259c0,4.753,1.119,10.364,3.285,16.788
			c4.099,12.674,6.149,25.204,6.149,37.646c-0.706,18.009-2.544,36.483-5.247,55.568c-2.812,19.157-4.186,34.739-4.186,46.701
			c-0.116,0.203-0.16,0.334-0.16,0.494c0,11.831,2.922,20.669,8.605,26.643c4.069,4.2,9.084,6.265,14.84,6.265
			c5.785,0,10.654-2.064,14.739-6.265c4.186-4.041,6.236-8.997,6.236-14.768c0-4.767-0.858-9.622-2.631-14.623
			C586.06,273.346,583.844,266.137,581.337,256.587z"/>
		<path fill="#FFFCF2" d="M203.287,258.259c-2.602-9.549-3.925-23.154-3.925-40.829c0-17.471,1.323-34.855,3.925-51.978
			c1.977-13.125,3.052-24.041,3.052-32.922c0-2.733-0.145-5.204-0.385-7.486c-2.348-13.198-8.554-19.898-18.627-20.203
			c-5.538,0-10.312,2.137-14.273,6.308c-3.329,3.692-4.913,8.372-4.913,14.23c0,4.927,1.04,10.466,3.227,16.89
			c4.15,12.601,6.178,25.204,6.178,37.675c-0.756,17.892-2.515,36.454-5.255,55.626c-2.783,19.099-4.15,34.637-4.15,46.512
			c-0.095,0.29-0.131,0.494-0.131,0.494c0,11.889,2.864,20.756,8.605,26.73c3.939,4.142,8.968,6.221,14.898,6.221
			c5.756,0,10.597-2.079,14.652-6.221c4.23-4.041,6.236-8.925,6.236-14.695c0-4.884-0.843-9.71-2.66-14.681
			C208.091,274.945,205.874,267.764,203.287,258.259z"/>
		<path fill="#C38E22" d="M190.183,391.923c7.217,0,13.278-2.544,18.373-7.602c5.109-5.087,7.725-11.279,7.725-18.387
			c0-7.253-2.617-13.372-7.725-18.488c-5.095-5.087-11.155-7.631-18.373-7.631c-7.151,0-13.394,2.544-18.452,7.631
			c-5.058,5.116-7.645,11.235-7.645,18.488c0,7.108,2.588,13.299,7.645,18.387C176.789,389.379,183.032,391.923,190.183,391.923z"/>
		<path fill="#C38E22" d="M564.556,26.788c-7.166,0-13.292,2.5-18.416,7.645c-5.08,5.087-7.646,11.236-7.646,18.416
			c0,7.137,2.566,13.358,7.646,18.489c5.124,5.087,11.25,7.616,18.416,7.616c7.216,0,13.394-2.529,18.445-7.616
			c5.073-5.131,7.675-11.352,7.675-18.489c0-7.18-2.602-13.329-7.675-18.416C577.95,29.288,571.772,26.788,564.556,26.788z"/>
		<path fill="#FFFCF2" d="M251.318,4.52C247.721,1.482,244.232,0,240.577,0c-2.042,0-3.932,0.537-6.068,1.482
			c-5.712,2.573-9.797,7.82-12.209,15.814c-2.428,7.878-6.367,15.349-11.904,22.151c-2.987,3.692-6.105,6.89-9.281,9.797
			c-15.589-25.626-41.592-40.64-75.691-41.861h-4.201c-26.41,0-51.759,8.982-75.8,26.933C43.576,24.593,41.097,18.169,38.067,15
			c-4.36-4.331-9.644-6.469-15.887-6.469c-6.076,0-11.293,2.18-15.72,6.556C2.071,19.433,0,24.593,0,30.799
			c0,4.244,0.654,8.983,2.035,14.129c1.381,5.334,3.59,13.198,6.548,23.706c1.751,6.41,2.667,16.439,2.667,30.262
			c0,15.713-1.09,36.323-3.387,61.716c-2.536,27.892-3.779,50.756-3.779,68.591c0,11.134,0.392,20.334,1.417,27.5
			c2.507,19.143,6.149,33.722,10.705,43.619c4.651,9.87,10.553,14.899,17.725,14.899c7.1,0,13.278-2.5,18.351-7.587
			c5.109-4.913,7.587-11.076,7.587-18.315c0-7.238-1.933-13.954-6.068-20.305c-3.925-6.425-9.113-21.541-15.604-45.306
			c-3.024-11.163-4.491-23.968-4.491-38.663c6.134-2.166,12.674-3.416,19.622-3.416h1.097c12.341,0.16,28.424,1.497,48.206,4.026
			c7.056,0.959,13.343,1.366,18.772,1.366c9.543,0,16.374-1.366,20.495-4.215c6.177-4.026,9.164-9.739,9.164-16.919v-1.584
			c-0.407-7.791-3.924-12.994-10.422-15.422c-2.478-0.988-5.058-1.468-7.682-1.468c-4.404,0-9.295,1.337-14.397,3.895
			c-8.11,4.375-17.049,6.991-26.686,7.994c-2.748,0.349-6.083,0.48-9.928,0.48c-9.15,0-21.236-0.945-36.221-2.733
			c-3.655-0.436-7.085-0.741-10.204-1.032c0.974-8.604,2.282-17.733,4.07-27.442c4.171-22.064,6.788-40.597,7.747-55.626
			c4.36-6.468,9.23-12.18,14.876-17.093c17.755-15.509,36.984-23.299,57.843-23.299c2.035,0,3.997,0.087,6.149,0.203
			c18.241,1.235,35.29,11.73,44.332,32.442c5.858,13.154,14.056,16.424,21.221,15.901c8.976-0.727,16.265-7.268,24.216-15.204
			c7.376-6.701,15.407-13.721,23.786-21.09c9.819-8.604,16.185-15.421,17.537-22.602c0.189-1.279,0.232-2.573,0.232-3.88
			C257.532,13.038,255.482,8.473,251.318,4.52z"/>
		<path fill="#FFFCF2" d="M423.421,91.571c-3.751-3.3-7.617-4.913-11.556-4.913c-2.093,0-4.36,0.639-6.526,1.613
			c-6.192,2.82-10.568,8.445-13.299,17.02c-2.457,8.619-6.912,16.642-12.747,23.983c-4.986,6.148-10.131,11.395-15.487,15.726
			c-1.133-0.595-2.318-1.031-3.452-1.511c-0.552-0.261-1.162-0.479-1.773-0.726c-1.541-0.567-3.126-1.177-4.724-1.715
			c-9.237-3.169-19.186-4.782-29.739-4.782c-14.251,0-27.384,2.849-39.361,8.561c-4.498,2.21-16.395,10.277-19.506,13.183
			c-2.056,1.642-4.069,3.416-5.858,5.218c-17.849,18.125-26.802,39.971-26.802,65.596c0,25.437,8.953,47.181,26.802,65.291
			c17.915,17.995,39.448,27.065,64.725,27.065c16.482,0,31.214-3.765,44.55-11.41c28.467,15.77,29.841,51.41,9.026,62.108
			c-16.316,8.328-47.893,3.721-66.527-1.846c-13.511-4.128-25.204-11.947-36.73-14.709c-1.33-0.335-34.165-5.538-33.176,28.692
			c0.225,7.515,1.119,16.497,14.687,21.73c12.13,4.637,38.838,2.268,56.382,3.242c23.808,1.351,25.742,1.395,34.506,1.395
			c17.108,0,31.832-4.142,44.281-12.398c16.389-10.887,25.342-27.37,26.396-49.449v-0.348c0-21.439-9.317-39.608-27.929-54.492
			c17.464-18.082,26.221-39.724,26.221-64.87c0-25.625-8.982-47.471-26.861-65.437c-0.589-0.552-0.988-1.017-1.613-1.511
			c-1.293-1.38-2.71-2.805-3.909-3.706c9.019-8.329,18.14-15.974,27.601-23.111c11.17-8.619,17.413-16.729,18.838-24.448
			c0.189-1.38,0.327-2.776,0.327-4.156C430.186,100.742,427.861,95.727,423.421,91.571z M380.869,226.906
			c0,3.634-0.225,7.34-0.662,11.207c-0.349,1.846-0.697,3.793-1.097,5.741c-3.896,17.53-12.595,31.004-26.083,40.524
			c-9.448,6.686-19.317,10.015-29.513,10.015c-2.667,0-5.364-0.247-8.074-0.698c-1.839-0.392-3.707-0.843-5.574-1.439
			c-15.109-4.186-26.701-13.968-34.703-29.273c-4.833-9.462-7.5-19.506-7.689-29.972v-2.34c0-3.765,0.189-7.501,0.749-11.367
			c0.283-1.788,0.639-3.837,0.973-5.741c3.91-17.515,12.566-31.09,25.909-40.713c9.622-6.512,19.477-9.797,29.506-9.797
			c2.812,0,5.494,0.218,8.227,0.77c1.868,0.291,3.735,0.756,5.603,1.337c15.131,4.186,26.577,13.896,34.499,29.245
			c5.13,9.608,7.703,19.622,7.929,30.204V226.906z"/>
	</g>
</g>
<g>
</g>
<g>
</g>
<g>
</g>
<g>
</g>
<g>
</g>
<g>
</g>
<g>
</g>
<g>
</g>
<g>
</g>
<g>
</g>
<g>
</g>
<g>
</g>
<g>
</g>
<g>
</g>
<g>
</g>
</svg>
